<?xml version="1.0"?>
<svg width="20" height="20" xmlns="http://www.w3.org/2000/svg" xmlns:svg="http://www.w3.org/2000/svg" version="1.1">
 <g class="layer">
  <title>Layer 1</title>
  <g id="layer1">
   <path d="m1.62,0.07l0,2.09l-1.68,0l0,1.05l1.68,0l0,1.05l-1.68,0l0,1.01l1.68,0.03l0,1.05l-1.68,0l0,1.01l1.68,0.03l0,1.05l-1.65,0l0,1.01l1.65,0.03l0,1.05l-1.65,0l0,1.05l1.65,0l0,1.05l-1.65,0l0,1.05l1.65,0l0,1.05l-1.68,0.03l0,1.01l1.68,0l0,1.05l-1.65,0l0,1.05l1.65,0l0,2.09l16.68,0l0,-2.09l1.68,0l0,-1.01l-1.68,-0.03l0,-1.05l1.68,0l0,-1.01l-1.68,-0.03l0,-1.05l1.71,0.03l0,-1.05l-1.71,-0.03l0,-1.05l1.71,0.03l0,-1.05l-1.71,-0.03l0,-1.05l1.68,0l0,-1.01l-1.68,-0.03l0,-1.05l1.66,0.04c0.01,-0.35 -0.01,-0.73 0,-1.08l-1.66,0l0,-1.05l1.68,0l0,-1.02l-1.68,-0.03l0,-1.05l1.7,0l0,-1.01l-1.7,-0.03l0,-2.09l-5.56,0l-1.39,1.05l-2.78,0l-1.39,-1.05l-5.56,0l0,-0.01zm1.39,1.05l3.48,0l1.39,1.05l4.17,0l1.39,-1.05l3.48,0l0,17.8l-13.9,0l0,-17.8l-0.01,0z" fill="#1d9bac" id="svg_1" stroke-width="0px"/>
  </g>
  <rect fill="#1d9bac" height="18.65" id="svg_2" transform="matrix(1 0 0 1 0 0)" width="15.36" x="2.4" y="0.82"/>
  <path d="m2.46,10.03l2.74,-2.81l0,1.4l1.1,0l0,-2.25l2.19,0l0,-1.13l-1.37,0l2.74,-2.81l2.74,2.81l-1.37,0l0,1.13l2.19,0l0,2.25l1.1,0l0,-1.4l2.74,2.81l-2.74,2.81l0,-1.4l-1.1,0l0,2.25l-2.19,0l0,1.13l1.37,0l-2.74,2.81l-2.74,-2.81l1.37,0l0,-1.13l-2.19,0l0,-2.25l-1.1,0l0,1.4l-2.74,-2.81z" fill="#ffffff" id="svg_3"/>
 </g>
</svg>