<?xml version="1.0"?>
<svg width="20" height="20" xmlns="http://www.w3.org/2000/svg" xmlns:svg="http://www.w3.org/2000/svg" version="1.1">
 <g class="layer">
  <title>Layer 1</title>
  <g id="layer1">
   <path d="m1.62,0.07l0,2.09l-1.68,0l0,1.05l1.68,0l0,1.05l-1.68,0l0,1.01l1.68,0.03l0,1.05l-1.68,0l0,1.01l1.68,0.03l0,1.05l-1.65,0l0,1.01l1.65,0.03l0,1.05l-1.65,0l0,1.05l1.65,0l0,1.05l-1.65,0l0,1.05l1.65,0l0,1.05l-1.68,0.03l0,1.01l1.68,0l0,1.05l-1.65,0l0,1.05l1.65,0l0,2.09l16.68,0l0,-2.09l1.68,0l0,-1.01l-1.68,-0.03l0,-1.05l1.68,0l0,-1.01l-1.68,-0.03l0,-1.05l1.71,0.03l0,-1.05l-1.71,-0.03l0,-1.05l1.71,0.03l0,-1.05l-1.71,-0.03l0,-1.05l1.68,0l0,-1.01l-1.68,-0.03l0,-1.05l1.66,0.04c0.01,-0.35 -0.01,-0.73 0,-1.08l-1.66,0l0,-1.05l1.68,0l0,-1.02l-1.68,-0.03l0,-1.05l1.7,0l0,-1.01l-1.7,-0.03l0,-2.09l-5.56,0l-1.39,1.05l-2.78,0l-1.39,-1.05l-5.56,0l0,-0.01zm1.39,1.05l3.48,0l1.39,1.05l4.17,0l1.39,-1.05l3.48,0l0,17.8l-13.9,0l0,-17.8l-0.01,0z" fill="#1d9bac" id="svg_1" stroke-width="0px"/>
  </g>
  <rect fill="#1d9bac" height="18.65" id="svg_2" transform="matrix(1 0 0 1 0 0)" width="15.36" x="2.4" y="0.82"/>
  <path d="m13.32,17.95l1,-1.87l1,-1.87l-0.94,0l0,-9.68l-2.14,0l0,9.68l-0.94,0l1,1.87l1,1.87l0.02,0zm-6.68,0l1,-1.87l1,-1.87l-0.94,0l0,-9.68l-2.14,0l0,9.68l-0.94,0l1,1.87l1,1.87l0.02,0zm10.03,-14.15l0,-1.49l-13.37,0l0,1.49l13.37,0z" fill="#ffffff" id="svg_4" transform="rotate(180 9.98391 10.1279)"/>
 </g>
</svg>