<?xml version="1.0"?>
<svg width="20" height="20" xmlns="http://www.w3.org/2000/svg" xmlns:svg="http://www.w3.org/2000/svg" version="1.1">
 <g class="layer">
  <title>Layer 1</title>
  <g id="layer1">
   <path d="m1.66,0.07l0,2.09l-1.68,0l0,1.05l1.68,0l0,1.05l-1.68,0l0,1.01l1.68,0.03l0,1.05l-1.68,0l0,1.01l1.68,0.03l0,1.05l-1.65,0l0,1.01l1.65,0.03l0,1.05l-1.65,0l0,1.05l1.65,0l0,1.05l-1.65,0l0,1.05l1.65,0l0,1.05l-1.68,0.03l0,1.01l1.68,0l0,1.05l-1.65,0l0,1.05l1.65,0l0,2.09l16.68,0l0,-2.09l1.64,0l0.04,-1.01l-1.68,-0.03l0,-1.05l1.64,0l0,-1.01l-1.64,-0.03l0,-1.05l1.64,0.03l0,-1.05l-1.64,-0.03l0,-1.05l1.64,0.03l0,-1.05l-1.64,-0.03l0,-1.05l1.64,0l0,-1.01l-1.64,-0.03l0,-1.05l1.66,0.04c0.01,-0.35 -0.01,-0.73 0,-1.08l-1.66,0l0,-1.05l1.64,0l0,-1.02l-1.64,-0.03l0,-1.05l1.63,0l0,-1.01l-1.63,-0.03l0,-2.09l-5.56,0l-1.39,1.05l-2.78,0l-1.39,-1.05l-5.56,0l0,-0.01zm1.39,1.05l3.48,0l1.39,1.05l4.17,0l1.39,-1.05l3.48,0l0,17.8l-13.9,0l0,-17.8l-0.01,0z" fill="#00ffd2" id="svg_1" stroke-width="0px"/>
  </g>
  <rect fill="#000000" height="16.8" id="svg_2" width="13.94" x="3.03" y="2.16"/>
  <path d="m6.51,2.16l0,-1.04l1.39,1.04z" fill="#000000" id="svg_4" transform="matrix(1 0 0 1 0 0)"/>
  <path d="m13.46,2.19l0,-1.1l-1.43,1.1z" fill="#000000" id="svg_5"/>
  <rect fill="#000000" height="1.04" id="svg_6" width="3.5" x="3.03" y="1.12"/>
  <rect fill="#000000" height="1.11" id="svg_7" width="3.5" x="13.45" y="1.07"/>
 </g>

</svg>