<?xml version="1.0"?>
<svg width="36" height="36" xmlns="http://www.w3.org/2000/svg" xmlns:svg="http://www.w3.org/2000/svg" preserveAspectRatio="xMidYMid meet" version="1.1">
 <title>cpu-outline-alerted</title>
 <g class="layer">
  <title>Layer 1</title>
  <path class="clr-i-outline--alerted clr-i-outline-path-1--alerted" d="m32.2,23.55l-2.2,0l0,-5.4l2.2,0a0.8,0.8 0 1 0 0,-1.6l-2.2,0l0,-1.15l-2,0l0,12.5a0.1,0.1 0 0 1 -0.1,0.1l-19.8,0a0.1,0.1 0 0 1 -0.1,-0.1l0,-19.8a0.1,0.1 0 0 1 0.1,-0.1l12,0l1.15,-2l-1.9,0l0,-2.2a0.8,0.8 0 1 0 -1.6,0l0,2.2l-5.4,0l0,-2.2a0.8,0.8 0 1 0 -1.6,0l0,2.2l-2.65,0a2.1,2.1 0 0 0 -2.1,2.1l0,1.45l-2.2,0a0.8,0.8 0 1 0 0,1.6l2.2,0l0,5.4l-2.2,0a0.8,0.8 0 1 0 0,1.6l2.2,0l0,5.4l-2.2,0a0.8,0.8 0 1 0 0,1.6l2.2,0l0,2.75a2.1,2.1 0 0 0 2.1,2.1l2.65,0l0,2.2a0.8,0.8 0 1 0 1.6,0l0,-2.2l5.4,0l0,2.2a0.8,0.8 0 1 0 1.6,0l0,-2.2l5.4,0l0,2.2a0.8,0.8 0 1 0 1.6,0l0,-2.2l1.55,0a2.1,2.1 0 0 0 2.1,-2.1l0,-2.75l2.2,0a0.8,0.8 0 1 0 0,-1.6z" fill="#ffffff" id="svg_1" transform="matrix(1 0 0 1 0 0)"/>
  <path class="clr-i-outline--alerted clr-i-outline-path-2--alerted" d="m12.06,24.57l11.77,0a0.75,0.75 0 0 0 0.75,-0.75l0,-8.42l-1.5,0l0,7.67l-11,0l-0.02,1.5z" fill="#ffffff" id="svg_2"/>
  <path class="clr-i-outline--alerted clr-i-outline-path-3--alerted clr-i-alert" d="m26.85,1.14l-5.72,9.86a1.28,1.28 0 0 0 1.1,2l11.45,0a1.28,1.28 0 0 0 1.1,-2l-5.72,-9.86a1.28,1.28 0 0 0 -2.21,0z" fill="#00ff00" id="svg_3"/>
 </g>
</svg>